<svg width="22" height="20" viewBox="0 0 22 20" fill="none" xmlns="http://www.w3.org/2000/svg">
<path d="M11 19.5709L2.51498 11.0859C1.38967 9.96075 0.757418 8.43462 0.757324 6.84328C0.75723 5.25194 1.3893 3.72574 2.51448 2.60043C3.63966 1.47511 5.16579 0.842867 6.75713 0.842773C8.34847 0.84268 9.87467 1.47475 11 2.59993C12.1258 1.47602 13.6517 0.844777 15.2425 0.844777C16.8333 0.844777 18.3591 1.47602 19.485 2.59993C20.6084 3.72604 21.2393 5.25177 21.2393 6.84243C21.2393 8.43309 20.6084 9.95881 19.485 11.0849L11 19.5709ZM6.75698 2.84293C5.96577 2.8429 5.19233 3.07752 4.53447 3.5171C3.87662 3.95669 3.36391 4.5815 3.06119 5.3125C2.75847 6.04351 2.67934 6.84787 2.8338 7.62385C2.98827 8.39983 3.3694 9.11257 3.92898 9.67193L11 16.7429L18.071 9.67193C18.4771 9.27484 18.794 8.7958 19.0006 8.2667C19.2072 7.7376 19.2988 7.17056 19.2691 6.60333C19.2395 6.0361 19.0895 5.48167 18.8289 4.97695C18.5684 4.47224 18.2033 4.0288 17.758 3.67614C17.3128 3.32349 16.7975 3.06971 16.2465 2.9317C15.6955 2.79369 15.1215 2.7746 14.5625 2.87571C14.0036 2.97683 13.4726 3.19582 13.0049 3.51812C12.5372 3.84042 12.1435 4.25863 11.85 4.74493L11 6.11693L10.15 4.74493C9.79909 4.15996 9.30138 3.67688 8.70621 3.3436C8.11104 3.01032 7.43908 2.83841 6.75698 2.84493V2.84293Z" fill="#F86338"/>
</svg>
