<svg xmlns="http://www.w3.org/2000/svg" width="240" height="96" viewBox="0 0 240 96" fill="none">
<g clip-path="url(#clip0_1903_874)">
<path d="M0 41.7178V50.1598C3.005 50.1578 5.98092 50.7246 8.75748 51.8279C11.534 52.9311 14.0567 54.5492 16.1812 56.5894C18.3052 58.6288 19.9896 61.0502 21.1382 63.715C22.2868 66.3798 22.8769 69.2358 22.875 72.1198H31.6625C31.6546 64.06 28.3163 56.3325 22.3804 50.6329C16.4444 44.9332 8.39555 41.727 0 41.7178H0Z" fill="white"/>
<path d="M43.9463 26.5195H30.02C37.065 30.8055 43.0345 36.5353 47.5 43.2979V29.9287C47.4994 29.0243 47.1247 28.1572 46.4583 27.5179C45.7919 26.8786 44.8884 26.5195 43.9463 26.5195Z" fill="white"/>
<path d="M8.75 26.5195H0V34.1203C10.4947 34.1308 20.5564 38.1376 27.9774 45.2615C35.3984 52.3855 39.5725 62.0446 39.5837 72.1195H47.5V63.7195C45.7102 54.4874 41.05 45.992 34.1331 39.3517C27.2162 32.7115 18.3668 28.2378 8.75 26.5195Z" fill="white"/>
<path d="M69.0389 31.5391H63.4614V58.5271H69.0389V31.5391Z" fill="white"/>
<path d="M89.5465 43.2316C88.6179 42.4213 87.5311 41.7961 86.349 41.392C83.8095 40.536 81.0421 40.536 78.5027 41.392C77.32 41.7958 76.2327 42.4211 75.304 43.2316C74.3931 44.0378 73.6654 45.0158 73.1665 46.1044C72.6508 47.292 72.3853 48.566 72.3853 49.8526C72.3853 51.1393 72.6508 52.4132 73.1665 53.6008C73.6635 54.6926 74.3914 55.6733 75.304 56.4808C76.2311 57.292 77.3178 57.917 78.5002 58.3192C81.0393 59.1768 83.8073 59.1768 86.3465 58.3192C87.5292 57.917 88.6163 57.292 89.544 56.4808C90.4561 55.673 91.1839 54.6923 91.6815 53.6008C92.1971 52.4132 92.4626 51.1393 92.4626 49.8526C92.4626 48.566 92.1971 47.292 91.6815 46.1044C91.183 45.0162 90.4562 44.0382 89.5465 43.2316ZM85.7164 53.0308C84.8133 53.8119 83.6408 54.2441 82.4252 54.2441C81.2096 54.2441 80.0371 53.8119 79.1339 53.0308C78.3748 52.1312 77.9606 51.0086 77.9606 49.8508C77.9606 48.6931 78.3748 47.5704 79.1339 46.6708C80.0371 45.8898 81.2096 45.4576 82.4252 45.4576C83.6408 45.4576 84.8133 45.8898 85.7164 46.6708C86.4756 47.5704 86.8898 48.6931 86.8898 49.8508C86.8898 51.0086 86.4756 52.1312 85.7164 53.0308Z" fill="white"/>
<path d="M109.57 43.4633H109.5C109.242 43.1157 108.942 42.7983 108.607 42.5177C108.202 42.1731 107.752 41.8788 107.27 41.6417C106.051 41.0412 104.698 40.7352 103.327 40.7501C102.127 40.7299 100.939 40.9937 99.8699 41.5181C98.8735 42.0134 97.9936 42.7 97.2849 43.5353C96.5623 44.3962 96.0079 45.3756 95.6487 46.4261C95.2667 47.5084 95.072 48.6434 95.0724 49.7861C95.0583 51.0127 95.2725 52.2318 95.7049 53.3861C96.0967 54.4395 96.7074 55.4054 97.4999 56.2253C98.2895 57.0276 99.2478 57.6596 100.311 58.0793C101.467 58.5317 102.707 58.7561 103.955 58.7393C104.878 58.724 105.791 58.5488 106.65 58.2221C107.613 57.8715 108.447 57.2568 109.049 56.4545H109.124V58.1345C109.145 58.6949 109.048 59.2536 108.841 59.7777C108.633 60.3018 108.318 60.7807 107.915 61.1861C107.403 61.6209 106.804 61.9515 106.156 62.1577C105.507 62.364 104.821 62.4417 104.14 62.3861C103.06 62.3977 101.99 62.1908 100.999 61.7789C100.013 61.3559 99.0926 60.8034 98.2649 60.1373L95.1787 64.5593C96.4402 65.5347 97.9147 66.2243 99.4924 66.5765C101.054 66.9211 102.65 67.0946 104.252 67.0937C107.772 67.0937 110.394 66.2429 112.116 64.5413C113.839 62.8397 114.7 60.3469 114.701 57.0629V41.1785H109.576L109.57 43.4633ZM109.235 51.3701C109.015 51.8781 108.692 52.3393 108.286 52.7273C107.873 53.123 107.388 53.4434 106.855 53.6729C106.302 53.9087 105.703 54.0306 105.098 54.0306C104.493 54.0306 103.894 53.9087 103.341 53.6729C102.816 53.4401 102.337 53.12 101.927 52.7273C101.519 52.336 101.196 51.8713 100.975 51.3599C100.754 50.8484 100.64 50.3002 100.64 49.7465C100.64 49.1928 100.754 48.6446 100.975 48.1331C101.196 47.6217 101.519 47.157 101.927 46.7657C102.337 46.373 102.816 46.0525 103.341 45.8189C103.895 45.5839 104.493 45.4625 105.098 45.4625C105.703 45.4625 106.302 45.5839 106.855 45.8189C107.387 46.0493 107.872 46.37 108.286 46.7657C108.9 47.3578 109.317 48.1108 109.486 48.9301C109.655 49.7494 109.568 50.5984 109.235 51.3701Z" fill="white"/>
<path d="M135.655 43.2316C134.726 42.4213 133.639 41.7961 132.457 41.392C129.918 40.536 127.151 40.536 124.611 41.392C123.428 41.7958 122.341 42.4211 121.412 43.2316C120.501 44.0378 119.774 45.0158 119.275 46.1044C118.759 47.292 118.494 48.566 118.494 49.8526C118.494 51.1393 118.759 52.4132 119.275 53.6008C119.772 54.6926 120.5 55.6733 121.412 56.4808C122.34 57.2922 123.428 57.9173 124.611 58.3192C127.15 59.1768 129.918 59.1768 132.457 58.3192C133.64 57.917 134.727 57.292 135.655 56.4808C136.567 55.6733 137.295 54.6926 137.792 53.6008C138.308 52.4132 138.574 51.1393 138.574 49.8526C138.574 48.566 138.308 47.292 137.792 46.1044C137.293 45.0158 136.566 44.0378 135.655 43.2316ZM131.825 53.0308C130.922 53.8119 129.749 54.2441 128.534 54.2441C127.318 54.2441 126.146 53.8119 125.242 53.0308C124.483 52.1312 124.069 51.0086 124.069 49.8508C124.069 48.6931 124.483 47.5704 125.242 46.6708C126.146 45.8898 127.318 45.4576 128.534 45.4576C129.749 45.4576 130.922 45.8898 131.825 46.6708C132.584 47.5704 132.998 48.6931 132.998 49.8508C132.998 51.0086 132.584 52.1312 131.825 53.0308Z" fill="white"/>
<path d="M145.973 41.2988H142.981V58.5272H145.973V41.2988Z" fill="white"/>
<path d="M144.478 32.4642C144.188 32.459 143.9 32.5118 143.632 32.6195C143.365 32.7271 143.123 32.8872 142.924 33.0894C142.62 33.3838 142.413 33.758 142.33 34.1649C142.247 34.5718 142.292 34.9932 142.458 35.3759C142.624 35.7586 142.904 36.0856 143.264 36.3155C143.623 36.5455 144.045 36.6683 144.477 36.6683C144.909 36.6683 145.331 36.5455 145.691 36.3155C146.05 36.0856 146.33 35.7586 146.496 35.3759C146.662 34.9932 146.707 34.5718 146.624 34.1649C146.541 33.758 146.334 33.3838 146.03 33.0894C145.831 32.8871 145.59 32.727 145.323 32.6193C145.055 32.5116 144.768 32.4588 144.478 32.4642Z" fill="white"/>
<path d="M168.099 43.4396C167.257 42.6149 166.245 41.9686 165.128 41.5424C163.901 41.0783 162.592 40.8472 161.274 40.862C160.032 40.8483 158.804 41.1134 157.688 41.636C156.588 42.1609 155.615 42.9002 154.83 43.8068H154.75V41.2988H151.763V66.9212H154.75V55.4732H154.826C155.461 56.5231 156.387 57.3837 157.5 57.9596C158.793 58.6543 160.255 59.004 161.736 58.9724C162.949 58.9798 164.15 58.7478 165.265 58.2908C166.342 57.8523 167.314 57.2071 168.121 56.3948C168.941 55.5646 169.586 54.5899 170.02 53.5244C170.94 51.1999 170.94 48.6321 170.02 46.3076C169.582 45.2396 168.93 44.2651 168.099 43.4396ZM167.044 52.4396C166.765 53.1897 166.329 53.877 165.762 54.4589C165.196 55.0407 164.511 55.5048 163.75 55.8224C162.068 56.4838 160.182 56.4838 158.5 55.8224C157.738 55.5048 157.052 55.0403 156.485 54.4578C155.918 53.8753 155.481 53.1871 155.203 52.436C154.616 50.8033 154.616 49.0287 155.203 47.396C155.481 46.6449 155.918 45.9567 156.485 45.3742C157.052 44.7917 157.738 44.3272 158.5 44.0096C160.182 43.3482 162.068 43.3482 163.75 44.0096C164.512 44.3272 165.198 44.7917 165.765 45.3742C166.332 45.9567 166.769 46.6449 167.048 47.396C167.635 49.0287 167.635 50.8033 167.048 52.436L167.044 52.4396Z" fill="white"/>
<path d="M185.777 49.92C185.209 49.512 184.576 49.1951 183.902 48.9816C183.163 48.742 182.407 48.5512 181.64 48.4104C181.065 48.3161 180.496 48.1935 179.934 48.0432C179.433 47.9126 178.945 47.74 178.476 47.5272C178.101 47.3636 177.761 47.1322 177.476 46.8456C177.234 46.5893 177.104 46.2533 177.112 45.9072C177.107 45.5338 177.22 45.1676 177.439 44.8584C177.654 44.553 177.935 44.2955 178.262 44.1036C178.613 43.9 178.996 43.751 179.395 43.662C179.804 43.5648 180.224 43.5153 180.645 43.5144C181.447 43.4905 182.239 43.6888 182.926 44.0856C183.547 44.4605 184.066 44.9713 184.441 45.576L186.934 43.9932C186.381 42.947 185.485 42.1054 184.382 41.5992C183.272 41.1041 182.061 40.8528 180.836 40.8636C180.006 40.8617 179.18 40.9732 178.382 41.1948C177.618 41.4041 176.893 41.7281 176.234 42.1548C175.603 42.5633 175.079 43.1047 174.7 43.7376C174.308 44.4116 174.109 45.1737 174.125 45.9456C174.094 46.7012 174.272 47.4513 174.642 48.1188C174.98 48.6771 175.451 49.1502 176.017 49.4988C176.642 49.8771 177.32 50.1684 178.03 50.364C178.797 50.5848 179.603 50.7812 180.446 50.9532C180.933 51.0516 181.406 51.162 181.865 51.2844C182.296 51.3954 182.709 51.5625 183.092 51.7812C183.431 51.9738 183.724 52.2306 183.955 52.536C184.185 52.8743 184.299 53.2734 184.281 53.6772C184.295 54.1015 184.175 54.5198 183.936 54.8772C183.698 55.216 183.384 55.499 183.016 55.7052C182.619 55.9327 182.184 56.095 181.731 56.1852C181.271 56.2822 180.802 56.3317 180.331 56.3328C179.399 56.3674 178.476 56.1504 177.666 55.7064C176.921 55.2513 176.266 54.6737 175.73 54L173.355 55.7676C174.09 56.8637 175.134 57.7374 176.365 58.2876C177.627 58.7684 178.977 59.0002 180.334 58.9692C181.218 58.9699 182.099 58.8712 182.959 58.6752C183.777 58.4936 184.556 58.176 185.26 57.7368C185.933 57.3082 186.489 56.7324 186.885 56.0568C187.314 55.2901 187.526 54.4285 187.5 53.5584C187.524 52.8103 187.367 52.0671 187.04 51.3876C186.743 50.8115 186.311 50.3092 185.777 49.92Z" fill="white"/>
<path d="M207.328 54.4412V41.2988H204.336V49.6988C204.346 50.6044 204.236 51.5076 204.01 52.3868C203.818 53.1406 203.479 53.8524 203.01 54.4844C202.565 55.072 201.971 55.5408 201.284 55.8464C200.494 56.1831 199.637 56.3471 198.773 56.3264C198.188 56.3718 197.601 56.2818 197.061 56.064C196.52 55.8462 196.042 55.5069 195.666 55.0748C194.948 54.0712 194.596 52.8672 194.666 51.6512V41.2988H191.675V51.938C191.666 52.9024 191.802 53.8631 192.078 54.7904C192.318 55.6125 192.745 56.3735 193.328 57.0188C193.911 57.6497 194.638 58.1426 195.453 58.4588C196.423 58.8225 197.46 58.9979 198.501 58.9748C199.202 58.9803 199.9 58.8869 200.573 58.6976C201.18 58.5279 201.76 58.2805 202.298 57.962C202.787 57.6727 203.232 57.3198 203.62 56.9132C203.969 56.5515 204.261 56.1418 204.484 55.6976H204.56C204.56 56.1896 204.573 56.6696 204.599 57.1376C204.625 57.6056 204.637 58.072 204.636 58.5368H207.475C207.475 57.9712 207.449 57.3452 207.398 56.6588C207.346 55.9724 207.323 55.2332 207.328 54.4412Z" fill="white"/>
<path d="M239.655 45.0727C239.455 44.2391 239.061 43.4596 238.503 42.7927C237.94 42.1474 237.214 41.6516 236.395 41.3527C235.363 40.9952 234.27 40.8267 233.174 40.8559C231.983 40.806 230.805 41.108 229.799 41.7211C228.866 42.3634 228.083 43.1848 227.498 44.1331C227.345 43.8379 227.147 43.5003 226.903 43.1203C226.632 42.71 226.288 42.3485 225.887 42.0523C225.395 41.6927 224.846 41.4093 224.262 41.2123C223.478 40.9592 222.653 40.8405 221.826 40.8619C221.126 40.8564 220.428 40.9498 219.756 41.1391C219.149 41.3088 218.568 41.5563 218.03 41.8747C217.541 42.1644 217.096 42.5173 216.707 42.9235C216.358 43.2852 216.068 43.6949 215.845 44.1391H215.767C215.767 43.6471 215.755 43.1695 215.73 42.6991C215.705 42.2287 215.691 41.7667 215.691 41.2999H212.854C212.854 41.8655 212.879 42.4915 212.93 43.1779C212.981 43.8643 213.006 44.6007 213.006 45.3871V58.5283H216V50.1355C215.99 49.2295 216.1 48.326 216.326 47.4463C216.517 46.6923 216.856 45.9803 217.326 45.3487C217.771 44.761 218.364 44.2921 219.051 43.9867C219.841 43.6498 220.699 43.4858 221.564 43.5067C222.075 43.4647 222.59 43.5537 223.055 43.7644C223.519 43.9752 223.917 44.3003 224.209 44.7067C224.851 45.9693 225.129 47.3739 225.015 48.7747V58.5307H228V48.5875C227.991 47.8789 228.115 47.1746 228.365 46.5079C228.586 45.9169 228.926 45.3731 229.365 44.9071C229.779 44.4709 230.281 44.1201 230.841 43.8763C231.407 43.6303 232.022 43.5046 232.644 43.5079C233.382 43.4822 234.117 43.6206 234.791 43.9123C235.322 44.1587 235.782 44.5257 236.132 44.9815C236.469 45.4328 236.705 45.9465 236.823 46.4899C236.951 47.0585 237.016 47.6386 237.015 48.2203V58.5283H240V48.0727C240.011 47.063 239.895 46.0558 239.655 45.0727Z" fill="white"/>
</g>
<defs>
<clipPath id="clip0_1903_874">
<rect width="240" height="96" fill="white"/>
</clipPath>
</defs>
</svg>