<svg xmlns="http://www.w3.org/2000/svg" width="168" height="33" viewBox="0 0 168 33" fill="none">
<path d="M0.979004 11.0615V17.1014C3.06471 17.1 5.13023 17.5056 7.05739 18.2949C8.98454 19.0842 10.7355 20.2419 12.2101 21.7016C13.6843 23.1607 14.8534 24.8931 15.6506 26.7997C16.4478 28.7063 16.8574 30.7496 16.8561 32.813H22.9553C22.9498 27.0465 20.6328 21.5178 16.5128 17.4399C12.3927 13.362 6.80618 11.0681 0.979004 11.0615H0.979004Z" fill="black"/>
<path d="M31.4813 0.1875H21.8154C26.7052 3.25394 30.8485 7.35342 33.9479 12.1918V2.62665C33.9475 1.97959 33.6874 1.35918 33.2249 0.901805C32.7623 0.444425 32.1352 0.1875 31.4813 0.1875Z" fill="black"/>
<path d="M7.05219 0.1875H0.979004V5.62557C8.26315 5.63307 15.2468 8.49978 20.3976 13.5967C25.5483 18.6936 28.4454 25.6043 28.4532 32.8125H33.9478V26.8026C32.7055 20.1974 29.471 14.1193 24.6701 9.36843C19.8692 4.61761 13.727 1.41684 7.05219 0.1875Z" fill="black"/>
<path d="M48.8976 3.7793H45.0264V23.0881H48.8976V3.7793Z" fill="black"/>
<path d="M63.1314 12.1446C62.487 11.5649 61.7326 11.1175 60.9121 10.8285C59.1496 10.216 57.2288 10.216 55.4662 10.8285C54.6453 11.1173 53.8907 11.5647 53.246 12.1446C52.6138 12.7214 52.1087 13.4211 51.7624 14.2C51.4045 15.0497 51.2202 15.9611 51.2202 16.8817C51.2202 17.8023 51.4045 18.7137 51.7624 19.5634C52.1074 20.3445 52.6126 21.0462 53.246 21.6239C53.8895 22.2043 54.6438 22.6515 55.4645 22.9392C57.2268 23.5528 59.148 23.5528 60.9104 22.9392C61.7313 22.6515 62.4859 22.2043 63.1297 21.6239C63.7628 21.0459 64.268 20.3443 64.6133 19.5634C64.9712 18.7137 65.1555 17.8023 65.1555 16.8817C65.1555 15.9611 64.9712 15.0497 64.6133 14.2C64.2673 13.4214 63.7629 12.7217 63.1314 12.1446ZM60.4731 19.1556C59.8462 19.7144 59.0324 20.0236 58.1887 20.0236C57.345 20.0236 56.5312 19.7144 55.9043 19.1556C55.3775 18.5119 55.09 17.7087 55.09 16.8804C55.09 16.0521 55.3775 15.2489 55.9043 14.6053C56.5312 14.0465 57.345 13.7372 58.1887 13.7372C59.0324 13.7372 59.8462 14.0465 60.4731 14.6053C61 15.2489 61.2875 16.0521 61.2875 16.8804C61.2875 17.7087 61 18.5119 60.4731 19.1556Z" fill="black"/>
<path d="M77.0292 12.3111H76.9806C76.8015 12.0624 76.5936 11.8353 76.3611 11.6346C76.0794 11.388 75.7675 11.1774 75.4328 11.0078C74.5866 10.5782 73.6474 10.3592 72.6964 10.3699C71.863 10.3555 71.0389 10.5442 70.2966 10.9194C69.605 11.2738 68.9943 11.765 68.5024 12.3626C68.0008 12.9786 67.6161 13.6793 67.3667 14.4309C67.1016 15.2052 66.9665 16.0173 66.9668 16.8348C66.957 17.7124 67.1056 18.5846 67.4058 19.4105C67.6777 20.1641 68.1016 20.8552 68.6516 21.4418C69.1997 22.0158 69.8648 22.468 70.6029 22.7683C71.4053 23.0919 72.2654 23.2525 73.1319 23.2405C73.7729 23.2295 74.4065 23.1042 75.0025 22.8704C75.6708 22.6196 76.2498 22.1798 76.6674 21.6058H76.7194V22.8078C76.7339 23.2087 76.6672 23.6084 76.5231 23.9834C76.379 24.3584 76.1605 24.701 75.8805 24.9911C75.5252 25.3021 75.1097 25.5386 74.6594 25.6862C74.209 25.8338 73.733 25.8894 73.2603 25.8496C72.5108 25.8579 71.7679 25.7099 71.08 25.4152C70.3956 25.1126 69.7571 24.7173 69.1826 24.2407L67.0405 27.4045C67.9161 28.1023 68.9395 28.5957 70.0346 28.8477C71.1182 29.0942 72.2265 29.2184 73.3384 29.2177C75.7816 29.2177 77.6009 28.609 78.7965 27.3916C79.992 26.1741 80.5901 24.3906 80.5907 22.0411V10.6764H77.0335L77.0292 12.3111ZM76.7966 17.9681C76.6439 18.3315 76.4201 18.6615 76.1381 18.9391C75.8511 19.2222 75.5145 19.4514 75.1447 19.6157C74.7608 19.7844 74.3454 19.8716 73.9253 19.8716C73.5053 19.8716 73.0898 19.7844 72.7059 19.6157C72.3411 19.4491 72.0089 19.2201 71.7247 18.9391C71.4415 18.6592 71.2168 18.3267 71.0635 17.9608C70.9102 17.5949 70.8313 17.2026 70.8313 16.8065C70.8313 16.4104 70.9102 16.0181 71.0635 15.6522C71.2168 15.2862 71.4415 14.9538 71.7247 14.6738C72.0091 14.3929 72.3412 14.1636 72.7059 13.9964C73.09 13.8283 73.5053 13.7414 73.9253 13.7414C74.3453 13.7414 74.7607 13.8283 75.1447 13.9964C75.5143 14.1613 75.8509 14.3908 76.1381 14.6738C76.564 15.0974 76.8538 15.6362 76.971 16.2224C77.0881 16.8086 77.0275 17.416 76.7966 17.9681Z" fill="black"/>
<path d="M95.1344 12.1446C94.4899 11.5649 93.7356 11.1175 92.9151 10.8285C91.1525 10.216 89.2317 10.216 87.4691 10.8285C86.6483 11.1173 85.8936 11.5647 85.2489 12.1446C84.6167 12.7214 84.1117 13.4211 83.7654 14.2C83.4074 15.0497 83.2231 15.9611 83.2231 16.8817C83.2231 17.8023 83.4074 18.7137 83.7654 19.5634C84.1104 20.3445 84.6156 21.0462 85.2489 21.6239C85.893 22.2045 86.6479 22.6517 87.4691 22.9392C89.2315 23.5528 91.1527 23.5528 92.9151 22.9392C93.736 22.6515 94.4905 22.2043 95.1344 21.6239C95.7678 21.0462 96.273 20.3445 96.618 19.5634C96.9759 18.7137 97.1602 17.8023 97.1602 16.8817C97.1602 15.9611 96.9759 15.0497 96.618 14.2C96.2717 13.4211 95.7666 12.7214 95.1344 12.1446ZM92.476 19.1556C91.8492 19.7144 91.0354 20.0236 90.1917 20.0236C89.348 20.0236 88.5341 19.7144 87.9073 19.1556C87.3804 18.5119 87.0929 17.7087 87.0929 16.8804C87.0929 16.0521 87.3804 15.2489 87.9073 14.6053C88.5341 14.0465 89.348 13.7372 90.1917 13.7372C91.0354 13.7372 91.8492 14.0465 92.476 14.6053C93.0029 15.2489 93.2904 16.0521 93.2904 16.8804C93.2904 17.7087 93.0029 18.5119 92.476 19.1556Z" fill="black"/>
<path d="M102.295 10.7617H100.219V23.088H102.295V10.7617Z" fill="black"/>
<path d="M101.258 4.44168C101.056 4.43789 100.856 4.47572 100.671 4.55274C100.485 4.62976 100.317 4.74429 100.179 4.88898C99.968 5.09959 99.8246 5.36733 99.767 5.65844C99.7095 5.94955 99.7403 6.25101 99.8555 6.52484C99.9708 6.79866 100.165 7.03258 100.415 7.19713C100.664 7.36168 100.957 7.44949 101.257 7.44949C101.557 7.44949 101.85 7.36168 102.099 7.19713C102.349 7.03258 102.543 6.79866 102.659 6.52484C102.774 6.25101 102.805 5.94955 102.747 5.65844C102.69 5.36733 102.546 5.09959 102.335 4.88898C102.197 4.74422 102.03 4.62965 101.844 4.55262C101.659 4.47559 101.459 4.4378 101.258 4.44168Z" fill="black"/>
<path d="M117.653 12.2929C117.069 11.7028 116.366 11.2404 115.59 10.9355C114.739 10.6034 113.831 10.4381 112.916 10.4487C112.054 10.4389 111.201 10.6286 110.426 11.0025C109.663 11.378 108.988 11.907 108.443 12.5556H108.388V10.7612H106.314V29.0931H108.388V20.9025H108.44C108.881 21.6536 109.524 22.2694 110.296 22.6814C111.193 23.1784 112.209 23.4286 113.237 23.406C114.078 23.4113 114.912 23.2453 115.686 22.9183C116.433 22.6046 117.108 22.143 117.668 21.5618C118.237 20.9679 118.685 20.2705 118.986 19.5082C119.625 17.8451 119.625 16.0079 118.986 14.3448C118.682 13.5808 118.229 12.8835 117.653 12.2929ZM116.92 18.732C116.727 19.2687 116.424 19.7604 116.031 20.1767C115.638 20.593 115.162 20.9251 114.634 21.1523C113.467 21.6255 112.158 21.6255 110.99 21.1523C110.462 20.9251 109.985 20.5928 109.592 20.176C109.198 19.7592 108.895 19.2669 108.702 18.7295C108.294 17.5613 108.294 16.2917 108.702 15.1235C108.895 14.5861 109.198 14.0938 109.592 13.677C109.985 13.2602 110.462 12.9279 110.99 12.7007C112.158 12.2275 113.467 12.2275 114.634 12.7007C115.163 12.9279 115.639 13.2602 116.033 13.677C116.426 14.0938 116.729 14.5861 116.923 15.1235C117.33 16.2917 117.33 17.5613 116.923 18.7295L116.92 18.732Z" fill="black"/>
<path d="M129.923 16.929C129.529 16.637 129.089 16.4103 128.622 16.2576C128.108 16.0861 127.583 15.9496 127.051 15.8489C126.652 15.7814 126.257 15.6937 125.867 15.5862C125.519 15.4928 125.181 15.3692 124.855 15.217C124.595 15.0999 124.359 14.9344 124.161 14.7293C123.993 14.5459 123.903 14.3055 123.909 14.058C123.905 13.7908 123.984 13.5288 124.135 13.3076C124.284 13.089 124.479 12.9049 124.707 12.7675C124.951 12.6219 125.216 12.5152 125.493 12.4516C125.777 12.3821 126.068 12.3466 126.361 12.346C126.917 12.3289 127.467 12.4708 127.944 12.7547C128.375 13.0229 128.735 13.3883 128.996 13.821L130.726 12.6886C130.342 11.9401 129.72 11.3379 128.955 10.9758C128.184 10.6215 127.343 10.4417 126.493 10.4495C125.917 10.4481 125.344 10.5279 124.79 10.6864C124.26 10.8361 123.756 11.068 123.299 11.3733C122.861 11.6655 122.497 12.0528 122.234 12.5057C121.962 12.9879 121.824 13.5331 121.835 14.0854C121.814 14.6261 121.937 15.1627 122.194 15.6403C122.429 16.0397 122.756 16.3782 123.149 16.6276C123.582 16.8983 124.053 17.1067 124.546 17.2466C125.078 17.4046 125.637 17.5451 126.223 17.6682C126.56 17.7386 126.889 17.8176 127.207 17.9051C127.506 17.9845 127.793 18.1041 128.059 18.2606C128.294 18.3983 128.498 18.5821 128.658 18.8006C128.818 19.0426 128.897 19.3282 128.884 19.6171C128.894 19.9206 128.811 20.2199 128.645 20.4756C128.48 20.718 128.262 20.9205 128.006 21.068C127.731 21.2308 127.429 21.3469 127.115 21.4115C126.795 21.4808 126.47 21.5162 126.143 21.5171C125.496 21.5418 124.855 21.3866 124.293 21.0689C123.776 20.7433 123.321 20.33 122.949 19.848L121.301 21.1127C121.811 21.8969 122.535 22.522 123.39 22.9156C124.266 23.2596 125.203 23.4255 126.145 23.4033C126.758 23.4038 127.37 23.3332 127.967 23.193C128.534 23.063 129.075 22.8358 129.564 22.5216C130.031 22.2149 130.417 21.803 130.692 21.3196C130.99 20.771 131.137 20.1546 131.119 19.5321C131.135 18.9969 131.026 18.4651 130.799 17.979C130.593 17.5668 130.293 17.2074 129.923 16.929Z" fill="black"/>
<path d="M144.88 20.1646V10.7617H142.804V16.7716C142.811 17.4195 142.735 18.0657 142.578 18.6947C142.445 19.234 142.209 19.7433 141.884 20.1955C141.575 20.6159 141.162 20.9513 140.686 21.17C140.138 21.4109 139.542 21.5282 138.943 21.5134C138.537 21.5458 138.13 21.4814 137.754 21.3256C137.379 21.1698 137.047 20.9271 136.787 20.6179C136.288 19.8998 136.044 19.0384 136.093 18.1685V10.7617H134.016V18.3736C134.01 19.0637 134.104 19.751 134.296 20.4144C134.463 21.0026 134.759 21.547 135.163 22.0088C135.568 22.4601 136.073 22.8128 136.638 23.039C137.312 23.2992 138.031 23.4247 138.754 23.4082C139.241 23.4121 139.725 23.3453 140.192 23.2099C140.613 23.0884 141.016 22.9114 141.389 22.6836C141.729 22.4766 142.038 22.2241 142.307 21.9332C142.55 21.6744 142.752 21.3813 142.907 21.0635H142.96C142.96 21.4155 142.969 21.7589 142.987 22.0938C143.004 22.4286 143.013 22.7623 143.013 23.0948H144.983C144.983 22.6902 144.965 22.2423 144.929 21.7512C144.893 21.2601 144.877 20.7312 144.88 20.1646Z" fill="black"/>
<path d="M167.319 13.4622C167.18 12.8657 166.907 12.3081 166.52 11.8309C166.129 11.3693 165.625 11.0145 165.056 10.8007C164.34 10.5449 163.582 10.4243 162.82 10.4452C161.994 10.4095 161.176 10.6256 160.478 11.0642C159.831 11.5238 159.287 12.1114 158.882 12.7899C158.775 12.5787 158.637 12.3372 158.469 12.0653C158.28 11.7717 158.042 11.5131 157.763 11.3012C157.421 11.0439 157.041 10.8412 156.635 10.7002C156.091 10.5191 155.519 10.4342 154.944 10.4495C154.458 10.4455 153.974 10.5124 153.508 10.6478C153.086 10.7693 152.683 10.9463 152.31 11.1741C151.97 11.3814 151.661 11.6339 151.392 11.9245C151.149 12.1833 150.948 12.4764 150.793 12.7942H150.739C150.739 12.4422 150.73 12.1005 150.713 11.764C150.696 11.4274 150.686 11.0969 150.686 10.7629H148.717C148.717 11.1675 148.734 11.6154 148.77 12.1065C148.805 12.5976 148.823 13.1245 148.823 13.6871V23.0891H150.901V17.0844C150.894 16.4362 150.97 15.7898 151.127 15.1604C151.259 14.6209 151.495 14.1115 151.821 13.6596C152.13 13.2391 152.542 12.9037 153.018 12.6852C153.567 12.4441 154.162 12.3268 154.762 12.3418C155.118 12.3117 155.475 12.3753 155.797 12.5261C156.12 12.6769 156.396 12.9096 156.598 13.2003C157.044 14.1036 157.237 15.1086 157.158 16.1108V23.0908H159.229V15.9769C159.223 15.4699 159.309 14.966 159.483 14.489C159.637 14.0662 159.872 13.6771 160.177 13.3437C160.464 13.0316 160.813 12.7806 161.202 12.6062C161.595 12.4302 162.021 12.3402 162.453 12.3426C162.965 12.3242 163.475 12.4232 163.943 12.632C164.312 12.8082 164.631 13.0708 164.874 13.3969C165.108 13.7198 165.271 14.0873 165.354 14.4761C165.443 14.8829 165.487 15.298 165.487 15.7142V23.0891H167.558V15.6086C167.566 14.8862 167.486 14.1655 167.319 13.4622Z" fill="black"/>
</svg>